# AST/ASF file generated using VICON BodyLanguage
# -----------------------------------------------
:version 1.10
:name VICON
:units
  mass 1.0
  length 0.45
  angle deg
:documentation
   .ast/.asf automatically generated from VICON data using
   VICON BodyBuilder and BodyLanguage model FoxedUp or BRILLIANT.MOD
:root
   order TX TY TZ RX RY RZ
   axis XYZ
   position 0 0 0  
   orientation 0 0 0 
:bonedata
  begin
     id 1 
     name lhipjoint
     direction 0.567149 -0.783011 0.255413 
     length 2.28399 
     axis 0 0 0  XYZ
  end
  begin
     id 2 
     name lfemur
     direction 0.34202 -0.939693 0  
     length 7.34031  
     axis 0 0 20  XYZ
    dof rx ry rz
    limits (-160.0 20.0)
           (-70.0 70.0)
           (-60.0 70.0)
  end
  begin
     id 3 
     name ltibia
     direction 0.34202 -0.939693 0   
     length 6.9833   
     axis 0 0 20   XYZ
    dof rx
    limits (-10.0 170.0)
  end
  begin
     id 4 
     name lfoot
     direction 0.136498 -0.375025 0.91691   
     length 2.33665   
     axis -90 7.62852e-016 20   XYZ
    dof rx rz
    limits (-45.0 90.0)
           (-70.0 20.0)
  end
  begin
     id 5 
     name ltoes
     direction 1.5367e-011 -4.21617e-011 1   
     length 1.15039   
     axis -90 7.62852e-016 20   XYZ
    dof rx
    limits (-90.0 20.0)
  end
  begin
     id 6 
     name rhipjoint
     direction -0.602854 -0.758518 0.247423   
     length 2.35775  
     axis 0 0 0  XYZ 
  end
  begin
     id 7 
     name rfemur
     direction -0.34202 -0.939693 0   
     length 7.43932   
     axis 0 0 -20   XYZ
    dof rx ry rz
    limits (-160.0 20.0)
           (-70.0 70.0)
           (-70.0 60.0)
  end
  begin
     id 8 
     name rtibia
     direction -0.34202 -0.939693 0   
     length 7.11893   
     axis 0 0 -20   XYZ
    dof rx
    limits (-10.0 170.0)
 end
 begin
     id 9 
     name rfoot
     direction -0.131771 -0.362037 0.922803   
     length 2.53019  
     axis -90 -7.62852e-016 -20   XYZ
    dof rx rz
    limits (-45.0 90.0)
           (-20.0 70.0)
  end
  begin
     id 10 
     name rtoes
     direction -1.53733e-011 -4.21932e-011 1   
     length 1.24596   
     axis -90 -7.62852e-016 -20   XYZ
    dof rx
    limits (-90.0 20.0)
  end
  begin
     id 11 
     name lowerback
     direction 0.0235427 0.999023 -0.0374125   
     length 2.21768   
     axis 0 0 0   XYZ
    dof rx ry rz
    limits (-20.0 45.0)
           (-30.0 30.0)
           (-30.0 30.0)
  end
  begin
     id 12 
     name upperback
     direction 0.0302156 0.996818 -0.073759   
     length 2.20352   
     axis 0 0 0   XYZ
    dof rx ry rz
    limits (-20.0 45.0)
           (-30.0 30.0)
           (-30.0 30.0)
  end
  begin
     id 13 
     name thorax
     direction 0.0187169 0.998235 -0.0563532   
     length 2.22103   
     axis 0 0 0   XYZ
    dof rx ry rz
    limits (-20.0 45.0)
           (-30.0 30.0)
           (-30.0 30.0)
  end
  begin
     id 14 
     name lowerneck
     direction -0.119528 0.987423 0.103481   
     length 1.72948   
     axis 0 0 0   XYZ
    dof rx ry rz
    limits (-20.0 45.0)
           (-30.0 30.0)
           (-30.0 30.0)
  end
  begin
     id 15 
     name upperneck
     direction 0.248049 0.963095 -0.104496   
     length 1.74979   
     axis 0 0 0   XYZ
    dof rx ry rz
    limits (-20.0 45.0)
           (-30.0 30.0)
           (-30.0 30.0)
  end
  begin
     id 16
     name head
     direction 0.0903589 0.994284 -0.056876  
     length 1.78268  
     axis 0 0 0   XYZ
    dof rx ry rz
    limits (-20.0 45.0)
           (-30.0 30.0)
           (-30.0 30.0)
  end
  begin
     id 17 
     name lclavicle
     direction 0.946008 0.242039 -0.215608  
     length 3.80783  
     axis 0 0 0   XYZ
    dof ry rz
    limits (-20.0 10.0)
           (0.0 20.0)
  end
  begin
     id 18 
     name lhumerus
     direction 1 -4.48991e-011 -2.25695e-027   
     length 4.83125   
     axis 180 -30 -90   XYZ
    dof rx ry rz
    limits (-60.0 90.0)
           (-90.0 90.0)
           (-90.0 90.0)
  end
  begin
     id 19
     name lradius
     direction 0.999991 0.00366712 -0.00211721   
     length 3.00391   
     axis 180 -30 -90   XYZ
    dof rx
    limits (-10.0 170.0)
  end
  begin
     id 20
     name lwrist
     direction 0.999991 0.00393016 -0.00141978   
     length 1.50195   
     axis -1.00488e-014 90 90   XYZ
    dof ry
    limits (-180.0 0.0)
 end
  begin
     id 21 
     name lhand
     direction 1 -4.49123e-011 2.72098e-026   
     length 1.2717   
     axis -1.73687e-014 90 90   XYZ
    dof rx rz
    limits (-90.0 90.0)
           (-45.0 45.0)
  end
  begin
     id 22 
     name lfingers
     direction 1 -4.48678e-011 5.4479e-026   
     length 1.02528   
     axis -3.47372e-014 90 90   XYZ
    dof rx
    limits (0.0 90.0)
  end
  begin
     id 23
     name lthumb
     direction 0.707107 -6.34851e-011 0.707107   
     length 1.4721   
     axis -90 45 -1.62303e-014   XYZ
    dof rx rz
    limits (-45.0 45.0)
           (-45.0 45.0)
  end
  begin
     id 24 
     name rclavicle
     direction -0.981723 0.189447 -0.0181673   
     length 3.74989  
     axis 0 0 0   XYZ 
    dof ry rz
    limits (-10.0 20.0)
           (-20.0 0.0)
  end
  begin
     id 25 
     name rhumerus
     direction -1 -4.48985e-011 2.38206e-027  
     length 4.61118   
     axis 180 30 90   XYZ
    dof rx ry rz
    limits (-90.0 60.0)
           (-90.0 90.0)
           (-90.0 90.0)
  end
  begin
     id 26 
     name rradius
     direction -1 -4.48977e-011 7.41019e-027   
     length 2.91491   
     axis 180 30 90   XYZ
    dof rx
    limits (-10.0 170.0)
  end
  begin
     id 27 
     name rwrist
     direction -1 -4.48549e-011 1.3624e-026   
     length 1.45745   
     axis -1.00488e-014 -90 -90   XYZ
    dof ry
    limits (-180.0 0.0)
  end
  begin
     id 28
     name rhand
     direction -1 -4.49107e-011 2.72109e-026   
     length 1.30769   
     axis -1.73687e-014 -90 -90   XYZ
    dof rx rz
    limits (-90.0 90.0)
           (-45.0 45.0)
  end
  begin
     id 29
     name rfingers
     direction -1 -4.48919e-011 5.44468e-026   
     length 1.05429   
     axis -3.47372e-014 -90 -90   XYZ
    dof rx
    limits (0.0 90.0)
  end
  begin
     id 30
     name rthumb
     direction -0.707107 -6.35315e-011 0.707107   
     length 1.51376   
     axis -90 -45 1.62303e-014   XYZ
    dof rx rz
    limits (-45.0 45.0)
           (-45.0 45.0)
  end
:hierarchy
  begin
    root lhipjoint rhipjoint lowerback
    lhipjoint lfemur
    lfemur ltibia
    ltibia lfoot
    lfoot ltoes
    rhipjoint rfemur
    rfemur rtibia
    rtibia rfoot
    rfoot rtoes
    lowerback upperback
    upperback thorax
    thorax lowerneck lclavicle rclavicle
    lowerneck upperneck
    upperneck head
    lclavicle lhumerus
    lhumerus lradius
    lradius lwrist
    lwrist lhand lthumb
    lhand lfingers
    rclavicle rhumerus
    rhumerus rradius
    rradius rwrist
    rwrist rhand rthumb
    rhand rfingers
  end

#!OML:ASF X:\für Bonn\!DataBase\2005_08_11_Bastian_Final\c3d\Bastian.ASF
:FULLY-SPECIFIED
:DEGREES
16
root 5.25013 16.4587 -0.480762 169.387 -7.0663 -177.533
lowerback 19.0379 -4.0264 -0.102101
upperback 10.7123 -7.60607 1.62706
thorax 1.21948 -4.83028 3.06529
lowerneck -11.4371 -4.31906 -2.33011
upperneck -7.63038 -4.25472 10.6957
head -0.146637 -1.58189 3.75186
rclavicle 2.87213e-014 -9.28076e-015
rhumerus -44.4875 16.8401 -95.6278
rradius 89.9874
rwrist 7.93998
rhand -11.482 7.73444
rfingers 7.12502
rthumb 14.5561 -21.7348
lclavicle 2.87213e-014 -9.28076e-015
lhumerus -36.5908 -39.4662 95.219
lradius 111.982
lwrist 69.1044
lhand 23.9232 -3.44947
lfingers 7.12502
lthumb 48.1707 18.6833
rfemur -24.4343 0.339334 9.32056
rtibia 66.826
rfoot -193.606 -190.099
rtoes -9.90954
lfemur 10.8318 2.01226 -13.3971
ltibia 36.9244
lfoot -30.3262 -6.56712
ltoes -15.6717
17
root 5.18833 16.4792 -0.482367 169.589 -7.21221 -177.386
lowerback 18.8834 -4.11021 0.0109107
upperback 10.6928 -7.67846 1.58233
thorax 1.26011 -4.8503 2.95236
lowerneck -11.2402 -4.30764 -2.2606
upperneck -7.76646 -4.21886 10.8519
head -0.22449 -1.56868 3.79938
rclavicle 3.15571e-014 -1.79403e-014
rhumerus -44.8391 16.7426 -95.9619
rradius 90.4237
rwrist 7.69704
rhand -11.3754 7.87392
rfingers 7.12502
rthumb 14.6588 -21.5879
lclavicle 3.15571e-014 -1.79403e-014
lhumerus -36.3131 -38.8967 95.0263
lradius 111.867
lwrist 68.4009
lhand 23.0761 -3.77207
lfingers 7.12502
lthumb 47.3891 18.7208
rfemur -25.1648 -0.815713 10.4315
rtibia 67.7914
rfoot -194.471 -188.232
rtoes -10.0351
lfemur 10.731 1.92327 -13.5313
ltibia 36.6995
lfoot -30.3578 -6.47307
ltoes -15.5938
18
root 5.12834 16.4982 -0.487118 169.805 -7.34792 -177.264
lowerback 18.7137 -4.18942 0.0826072
upperback 10.6517 -7.74389 1.53706
thorax 1.28886 -4.86539 2.86042
lowerneck -11.0442 -4.29034 -2.24457
upperneck -7.84903 -4.17637 11.0478
head -0.282646 -1.55123 3.8712
rclavicle 4.92986e-014 -2.40529e-014
rhumerus -45.1722 16.6648 -96.254
rradius 90.8842
rwrist 7.60158
rhand -11.2882 8.21331
rfingers 7.12502
rthumb 14.7428 -21.2424
lclavicle 4.92986e-014 -2.40529e-014
lhumerus -36.0648 -38.3013 94.9272
lradius 111.789
lwrist 67.6354
lhand 22.0613 -4.03617
lfingers 7.12502
lthumb 46.4503 18.8685
rfemur -25.9361 -2.02146 11.5505
rtibia 68.7152
rfoot -195.174 -186.672
rtoes -9.14712
lfemur 10.6435 1.83925 -13.6828
ltibia 36.4678
lfoot -30.3702 -6.39952
ltoes -15.4732
19
root 5.0685 16.5157 -0.495678 170.059 -7.48164 -177.137
lowerback 18.4853 -4.26719 0.154192
upperback 10.602 -7.80411 1.51653
thorax 1.34136 -4.87701 2.78707
lowerneck -10.8812 -4.29064 -2.28177
upperneck -7.90792 -4.15708 11.2339
head -0.324717 -1.54379 3.94835
rclavicle -4.79071e-014 1.39149e-014
rhumerus -45.4132 16.5972 -96.4568
rradius 91.3592
rwrist 7.74993
rhand -11.2265 8.75875
rfingers 7.12502
rthumb 14.8023 -20.6926
lclavicle -4.79071e-014 1.39149e-014
lhumerus -35.8742 -37.7687 94.9292
lradius 111.78
lwrist 66.803
lhand 20.8646 -4.30419
lfingers 7.12502
lthumb 45.3397 19.0603
rfemur -26.7485 -3.26577 12.6925
rtibia 69.5641
rfoot -195.717 -185.42
rtoes -7.56216
lfemur 10.5351 1.78425 -13.8059
ltibia 36.2343
lfoot -30.4029 -6.37012
ltoes -15.3734
20
root 5.01028 16.5314 -0.507139 170.312 -7.58839 -177.009
lowerback 18.2333 -4.3322 0.170161
upperback 10.5674 -7.86405 1.53717
thorax 1.43543 -4.8958 2.78222
lowerneck -10.7702 -4.27921 -2.36423
upperneck -7.96334 -4.11917 11.3849
head -0.358044 -1.5248 4.0221
rclavicle 5.63555e-014 -4.96962e-014
rhumerus -45.5678 16.6274 -96.5556
rradius 91.8731
rwrist 8.10152
rhand -11.1676 9.42283
rfingers 7.12502
rthumb 14.859 -20.0243
lclavicle 5.63555e-014 -4.96962e-014
lhumerus -35.6733 -37.218 95.0354
lradius 111.743
lwrist 65.8943
lhand 19.7226 -4.71216
lfingers 7.12502
lthumb 44.2766 19.0668
rfemur -27.5861 -4.5022 13.8693
rtibia 70.3547
rfoot -196.187 -184.444
rtoes -5.55986
lfemur 10.4364 1.81403 -13.8865
ltibia 35.997
lfoot -30.4016 -6.35645
ltoes -15.4089
21
root 4.95138 16.5454 -0.521458 170.578 -7.67701 -176.883
lowerback 17.9711 -4.39783 0.209465
upperback 10.5141 -7.91474 1.54767
thorax 1.50971 -4.90551 2.75285
lowerneck -10.6228 -4.28126 -2.48337
upperneck -8.01905 -4.09516 11.5853
head -0.394432 -1.51307 4.12088
rclavicle -4.46272e-014 1.58034e-014
rhumerus -45.6977 16.6589 -96.6513
rradius 92.4776
rwrist 8.57538
rhand -11.0917 10.1501
rfingers 7.12502
rthumb 14.9321 -19.2917
lclavicle -4.46272e-014 1.58034e-014
lhumerus -35.499 -36.7675 95.1877
lradius 111.711
lwrist 64.9345
lhand 18.4586 -5.20781
lfingers 7.12502
lthumb 43.0966 19.0039
rfemur -28.4413 -5.71006 15.0678
rtibia 71.0619
rfoot -196.543 -183.95
rtoes -4.1037
lfemur 10.3502 1.84818 -13.9641
ltibia 35.7562
lfoot -30.4422 -6.40769
ltoes -15.3166
